<svg width="219" height="183" viewBox="0 0 219 183" fill="none" xmlns="http://www.w3.org/2000/svg">
<mask id="path-1-outside-1_159_189" maskUnits="userSpaceOnUse" x="-10" y="-10" width="238" height="203" fill="black">
<rect fill="white" x="-10" y="-10" width="238" height="203"/>
<path d="M112.873 182.7C86.0332 182.7 64.3265 178.813 47.7532 171.04C31.1799 163.267 19.0799 152.413 11.4532 138.48C3.9732 124.4 0.233203 108.12 0.233203 89.64C0.233203 70.72 3.89987 54.5867 11.2332 41.24C18.5665 27.8933 28.6865 17.7 41.5932 10.66C54.6465 3.61999 69.6065 0.0999963 86.4732 0.0999963C98.0599 0.0999963 107.96 1.27333 116.173 3.61999C124.387 5.96666 130.693 10 135.093 15.72C139.64 21.44 141.987 29.36 142.133 39.48C144.187 33.9067 144.92 28.26 144.333 22.54C143.893 16.6733 143.38 10.8067 142.793 4.93999C149.833 4.79332 157.827 4.64666 166.773 4.49999C175.72 4.20666 184.447 3.91333 192.953 3.61999C201.46 3.32666 208.647 3.18 214.513 3.18C215.54 7.72666 216.347 13.4467 216.933 20.34C217.52 27.0867 217.813 34.3467 217.813 42.12C217.96 49.8933 217.813 57.52 217.373 65C216.933 72.48 216.2 79.1533 215.173 85.02C210.627 85.7533 204.907 86.34 198.013 86.78C191.12 87.22 183.64 87.5133 175.573 87.66C167.653 87.66 159.733 87.66 151.813 87.66C144.04 87.5133 136.853 87.22 130.253 86.78C123.653 86.34 118.227 85.7533 113.973 85.02L113.753 76H102.093V104.38H113.753V94.04C130.767 93.16 147.487 92.72 163.913 92.72C180.487 92.72 198.087 93.16 216.713 94.04C215.98 114.133 211.947 130.78 204.613 143.98C197.427 157.033 186.353 166.787 171.393 173.24C156.433 179.547 136.927 182.7 112.873 182.7Z"/>
</mask>
<path d="M112.873 182.7C86.0332 182.7 64.3265 178.813 47.7532 171.04C31.1799 163.267 19.0799 152.413 11.4532 138.48C3.9732 124.4 0.233203 108.12 0.233203 89.64C0.233203 70.72 3.89987 54.5867 11.2332 41.24C18.5665 27.8933 28.6865 17.7 41.5932 10.66C54.6465 3.61999 69.6065 0.0999963 86.4732 0.0999963C98.0599 0.0999963 107.96 1.27333 116.173 3.61999C124.387 5.96666 130.693 10 135.093 15.72C139.64 21.44 141.987 29.36 142.133 39.48C144.187 33.9067 144.92 28.26 144.333 22.54C143.893 16.6733 143.38 10.8067 142.793 4.93999C149.833 4.79332 157.827 4.64666 166.773 4.49999C175.72 4.20666 184.447 3.91333 192.953 3.61999C201.46 3.32666 208.647 3.18 214.513 3.18C215.54 7.72666 216.347 13.4467 216.933 20.34C217.52 27.0867 217.813 34.3467 217.813 42.12C217.96 49.8933 217.813 57.52 217.373 65C216.933 72.48 216.2 79.1533 215.173 85.02C210.627 85.7533 204.907 86.34 198.013 86.78C191.12 87.22 183.64 87.5133 175.573 87.66C167.653 87.66 159.733 87.66 151.813 87.66C144.04 87.5133 136.853 87.22 130.253 86.78C123.653 86.34 118.227 85.7533 113.973 85.02L113.753 76H102.093V104.38H113.753V94.04C130.767 93.16 147.487 92.72 163.913 92.72C180.487 92.72 198.087 93.16 216.713 94.04C215.98 114.133 211.947 130.78 204.613 143.98C197.427 157.033 186.353 166.787 171.393 173.24C156.433 179.547 136.927 182.7 112.873 182.7Z" fill="url(#paint0_linear_159_189)"/>
<path d="M11.4532 138.48L2.62205 143.172L2.65134 143.227L2.68132 143.281L11.4532 138.48ZM11.2332 41.24L2.46901 36.4245L11.2332 41.24ZM41.5932 10.66L36.8463 1.85846L36.8255 1.8697L36.8047 1.88103L41.5932 10.66ZM116.173 3.61999L118.92 -5.99525L118.92 -5.99525L116.173 3.61999ZM135.093 15.72L127.167 21.8171L127.215 21.8802L127.265 21.9424L135.093 15.72ZM142.133 39.48L132.134 39.6249L151.517 42.937L142.133 39.48ZM144.333 22.54L134.361 23.2879L134.371 23.4243L134.385 23.5603L144.333 22.54ZM142.793 4.93999L142.585 -5.05784L131.766 -4.83245L132.843 5.93503L142.793 4.93999ZM166.773 4.49999L166.937 14.4986L167.019 14.4973L167.101 14.4946L166.773 4.49999ZM192.953 3.61999L192.609 -6.37407L192.609 -6.37407L192.953 3.61999ZM214.513 3.18L224.268 0.977376L222.507 -6.82H214.513V3.18ZM216.933 20.34L206.969 21.188L206.97 21.1971L206.971 21.2063L216.933 20.34ZM217.813 42.12H207.813V42.2143L207.815 42.3086L217.813 42.12ZM217.373 65L227.356 65.5872L227.356 65.5872L217.373 65ZM215.173 85.02L216.766 94.8924L223.796 93.7585L225.024 86.7438L215.173 85.02ZM175.573 87.66V97.66H175.664L175.755 97.6583L175.573 87.66ZM151.813 87.66L151.625 97.6582L151.719 97.66H151.813V87.66ZM130.253 86.78L129.588 96.7578L129.588 96.7578L130.253 86.78ZM113.973 85.02L103.976 85.2638L104.177 93.4785L112.274 94.8746L113.973 85.02ZM113.753 76L123.75 75.7562L123.512 66H113.753V76ZM102.093 76V66H92.0932V76H102.093ZM102.093 104.38H92.0932V114.38H102.093V104.38ZM113.753 104.38V114.38H123.753V104.38H113.753ZM113.753 94.04L113.237 84.0533L103.753 84.5439V94.04H113.753ZM216.713 94.04L226.707 94.4047L227.067 84.518L217.185 84.0511L216.713 94.04ZM204.613 143.98L195.872 139.124L195.862 139.14L195.853 139.157L204.613 143.98ZM171.393 173.24L175.278 182.455L175.316 182.439L175.354 182.422L171.393 173.24ZM112.873 172.7C86.8716 172.7 66.7727 168.915 51.9996 161.986L43.5068 180.094C61.8804 188.711 85.1948 192.7 112.873 192.7V172.7ZM51.9996 161.986C37.0437 154.972 26.6825 145.476 20.2251 133.679L2.68132 143.281C11.4773 159.351 25.3161 171.562 43.5068 180.094L51.9996 161.986ZM20.2844 133.788C13.6858 121.368 10.2332 106.746 10.2332 89.64H-9.7668C-9.7668 109.494 -5.73942 127.432 2.62205 143.172L20.2844 133.788ZM10.2332 89.64C10.2332 72.0012 13.6487 57.6101 19.9974 46.0555L2.46901 36.4245C-5.84894 51.5632 -9.7668 69.4387 -9.7668 89.64H10.2332ZM19.9974 46.0555C26.4459 34.3193 35.2138 25.5306 46.3817 19.4389L36.8047 1.88103C22.1593 9.86942 10.6872 21.4674 2.46901 36.4245L19.9974 46.0555ZM46.3401 19.4615C57.7449 13.3106 71.0336 10.1 86.4732 10.1V-9.9C68.1795 -9.9 51.5481 -6.07062 36.8463 1.85846L46.3401 19.4615ZM86.4732 10.1C97.4374 10.1 106.36 11.2162 113.426 13.2352L118.92 -5.99525C109.56 -8.66959 98.6823 -9.9 86.4732 -9.9V10.1ZM113.426 13.2352C119.971 15.1052 124.299 18.0894 127.167 21.8171L143.019 9.62289C137.087 1.91063 128.802 -3.17184 118.92 -5.99525L113.426 13.2352ZM127.265 21.9424C129.993 25.3749 132.007 30.8783 132.134 39.6249L152.132 39.3351C151.966 27.8417 149.286 17.5051 142.921 9.49755L127.265 21.9424ZM151.517 42.937C154.079 35.9824 155.028 28.8064 154.281 21.5197L134.385 23.5603C134.811 27.7136 134.294 31.8309 132.75 36.0229L151.517 42.937ZM154.305 21.7921C153.859 15.8428 153.338 9.89373 152.744 3.94495L132.843 5.93503C133.421 11.7196 133.927 17.5039 134.361 23.2879L154.305 21.7921ZM143.002 14.9378C150.023 14.7915 158.002 14.6451 166.937 14.4986L166.609 -5.49866C157.652 -5.35182 149.643 -5.20489 142.585 -5.05784L143.002 14.9378ZM167.101 14.4946C176.053 14.2011 184.785 13.9076 193.298 13.6141L192.609 -6.37407C184.108 -6.08094 175.387 -5.78779 166.446 -5.49464L167.101 14.4946ZM193.298 13.6141C201.736 13.3231 208.8 13.18 214.513 13.18V-6.82C208.493 -6.82 201.184 -6.66977 192.609 -6.37407L193.298 13.6141ZM204.759 5.38262C205.649 9.32552 206.405 14.5548 206.969 21.188L226.897 19.492C226.288 12.3385 225.431 6.1278 224.268 0.977376L204.759 5.38262ZM206.971 21.2063C207.529 27.6265 207.813 34.5946 207.813 42.12H227.813C227.813 34.0987 227.511 26.5468 226.896 19.4737L206.971 21.2063ZM207.815 42.3086C207.957 49.8329 207.815 57.2006 207.39 64.4128L227.356 65.5872C227.812 57.8394 227.963 49.9538 227.811 41.9314L207.815 42.3086ZM207.39 64.4128C206.967 71.604 206.27 77.8868 205.323 83.2962L225.024 86.7438C226.13 80.4199 226.899 73.356 227.356 65.5872L207.39 64.4128ZM213.581 75.1476C209.465 75.8115 204.091 76.3717 197.376 76.8003L198.65 96.7597C205.723 96.3083 211.788 95.6952 216.766 94.8924L213.581 75.1476ZM197.376 76.8003C190.657 77.2292 183.331 77.5173 175.391 77.6616L175.755 97.6583C183.949 97.5094 191.583 97.2108 198.65 96.7597L197.376 76.8003ZM175.573 77.66C175.558 77.66 175.542 77.66 175.527 77.66C175.511 77.66 175.496 77.66 175.48 77.66C175.465 77.66 175.449 77.66 175.434 77.66C175.419 77.66 175.403 77.66 175.388 77.66C175.372 77.66 175.357 77.66 175.341 77.66C175.326 77.66 175.31 77.66 175.295 77.66C175.279 77.66 175.264 77.66 175.248 77.66C175.233 77.66 175.217 77.66 175.202 77.66C175.186 77.66 175.171 77.66 175.156 77.66C175.14 77.66 175.125 77.66 175.109 77.66C175.094 77.66 175.078 77.66 175.063 77.66C175.047 77.66 175.032 77.66 175.016 77.66C175.001 77.66 174.985 77.66 174.97 77.66C174.954 77.66 174.939 77.66 174.924 77.66C174.908 77.66 174.893 77.66 174.877 77.66C174.862 77.66 174.846 77.66 174.831 77.66C174.815 77.66 174.8 77.66 174.784 77.66C174.769 77.66 174.753 77.66 174.738 77.66C174.722 77.66 174.707 77.66 174.691 77.66C174.676 77.66 174.661 77.66 174.645 77.66C174.63 77.66 174.614 77.66 174.599 77.66C174.583 77.66 174.568 77.66 174.552 77.66C174.537 77.66 174.521 77.66 174.506 77.66C174.49 77.66 174.475 77.66 174.459 77.66C174.444 77.66 174.429 77.66 174.413 77.66C174.398 77.66 174.382 77.66 174.367 77.66C174.351 77.66 174.336 77.66 174.32 77.66C174.305 77.66 174.289 77.66 174.274 77.66C174.258 77.66 174.243 77.66 174.227 77.66C174.212 77.66 174.196 77.66 174.181 77.66C174.166 77.66 174.15 77.66 174.135 77.66C174.119 77.66 174.104 77.66 174.088 77.66C174.073 77.66 174.057 77.66 174.042 77.66C174.026 77.66 174.011 77.66 173.995 77.66C173.98 77.66 173.964 77.66 173.949 77.66C173.934 77.66 173.918 77.66 173.903 77.66C173.887 77.66 173.872 77.66 173.856 77.66C173.841 77.66 173.825 77.66 173.81 77.66C173.794 77.66 173.779 77.66 173.763 77.66C173.748 77.66 173.732 77.66 173.717 77.66C173.701 77.66 173.686 77.66 173.671 77.66C173.655 77.66 173.64 77.66 173.624 77.66C173.609 77.66 173.593 77.66 173.578 77.66C173.562 77.66 173.547 77.66 173.531 77.66C173.516 77.66 173.5 77.66 173.485 77.66C173.469 77.66 173.454 77.66 173.439 77.66C173.423 77.66 173.408 77.66 173.392 77.66C173.377 77.66 173.361 77.66 173.346 77.66C173.33 77.66 173.315 77.66 173.299 77.66C173.284 77.66 173.268 77.66 173.253 77.66C173.237 77.66 173.222 77.66 173.206 77.66C173.191 77.66 173.176 77.66 173.16 77.66C173.145 77.66 173.129 77.66 173.114 77.66C173.098 77.66 173.083 77.66 173.067 77.66C173.052 77.66 173.036 77.66 173.021 77.66C173.005 77.66 172.99 77.66 172.974 77.66C172.959 77.66 172.944 77.66 172.928 77.66C172.913 77.66 172.897 77.66 172.882 77.66C172.866 77.66 172.851 77.66 172.835 77.66C172.82 77.66 172.804 77.66 172.789 77.66C172.773 77.66 172.758 77.66 172.742 77.66C172.727 77.66 172.711 77.66 172.696 77.66C172.681 77.66 172.665 77.66 172.65 77.66C172.634 77.66 172.619 77.66 172.603 77.66C172.588 77.66 172.572 77.66 172.557 77.66C172.541 77.66 172.526 77.66 172.51 77.66C172.495 77.66 172.479 77.66 172.464 77.66C172.449 77.66 172.433 77.66 172.418 77.66C172.402 77.66 172.387 77.66 172.371 77.66C172.356 77.66 172.34 77.66 172.325 77.66C172.309 77.66 172.294 77.66 172.278 77.66C172.263 77.66 172.247 77.66 172.232 77.66C172.216 77.66 172.201 77.66 172.186 77.66C172.17 77.66 172.155 77.66 172.139 77.66C172.124 77.66 172.108 77.66 172.093 77.66C172.077 77.66 172.062 77.66 172.046 77.66C172.031 77.66 172.015 77.66 172 77.66C171.984 77.66 171.969 77.66 171.954 77.66C171.938 77.66 171.923 77.66 171.907 77.66C171.892 77.66 171.876 77.66 171.861 77.66C171.845 77.66 171.83 77.66 171.814 77.66C171.799 77.66 171.783 77.66 171.768 77.66C171.752 77.66 171.737 77.66 171.721 77.66C171.706 77.66 171.691 77.66 171.675 77.66C171.66 77.66 171.644 77.66 171.629 77.66C171.613 77.66 171.598 77.66 171.582 77.66C171.567 77.66 171.551 77.66 171.536 77.66C171.52 77.66 171.505 77.66 171.489 77.66C171.474 77.66 171.459 77.66 171.443 77.66C171.428 77.66 171.412 77.66 171.397 77.66C171.381 77.66 171.366 77.66 171.35 77.66C171.335 77.66 171.319 77.66 171.304 77.66C171.288 77.66 171.273 77.66 171.257 77.66C171.242 77.66 171.226 77.66 171.211 77.66C171.196 77.66 171.18 77.66 171.165 77.66C171.149 77.66 171.134 77.66 171.118 77.66C171.103 77.66 171.087 77.66 171.072 77.66C171.056 77.66 171.041 77.66 171.025 77.66C171.01 77.66 170.994 77.66 170.979 77.66C170.964 77.66 170.948 77.66 170.933 77.66C170.917 77.66 170.902 77.66 170.886 77.66C170.871 77.66 170.855 77.66 170.84 77.66C170.824 77.66 170.809 77.66 170.793 77.66C170.778 77.66 170.762 77.66 170.747 77.66C170.731 77.66 170.716 77.66 170.701 77.66C170.685 77.66 170.67 77.66 170.654 77.66C170.639 77.66 170.623 77.66 170.608 77.66C170.592 77.66 170.577 77.66 170.561 77.66C170.546 77.66 170.53 77.66 170.515 77.66C170.499 77.66 170.484 77.66 170.469 77.66C170.453 77.66 170.438 77.66 170.422 77.66C170.407 77.66 170.391 77.66 170.376 77.66C170.36 77.66 170.345 77.66 170.329 77.66C170.314 77.66 170.298 77.66 170.283 77.66C170.267 77.66 170.252 77.66 170.236 77.66C170.221 77.66 170.206 77.66 170.19 77.66C170.175 77.66 170.159 77.66 170.144 77.66C170.128 77.66 170.113 77.66 170.097 77.66C170.082 77.66 170.066 77.66 170.051 77.66C170.035 77.66 170.02 77.66 170.004 77.66C169.989 77.66 169.974 77.66 169.958 77.66C169.943 77.66 169.927 77.66 169.912 77.66C169.896 77.66 169.881 77.66 169.865 77.66C169.85 77.66 169.834 77.66 169.819 77.66C169.803 77.66 169.788 77.66 169.772 77.66C169.757 77.66 169.741 77.66 169.726 77.66C169.711 77.66 169.695 77.66 169.68 77.66C169.664 77.66 169.649 77.66 169.633 77.66C169.618 77.66 169.602 77.66 169.587 77.66C169.571 77.66 169.556 77.66 169.54 77.66C169.525 77.66 169.509 77.66 169.494 77.66C169.479 77.66 169.463 77.66 169.448 77.66C169.432 77.66 169.417 77.66 169.401 77.66C169.386 77.66 169.37 77.66 169.355 77.66C169.339 77.66 169.324 77.66 169.308 77.66C169.293 77.66 169.277 77.66 169.262 77.66C169.246 77.66 169.231 77.66 169.216 77.66C169.2 77.66 169.185 77.66 169.169 77.66C169.154 77.66 169.138 77.66 169.123 77.66C169.107 77.66 169.092 77.66 169.076 77.66C169.061 77.66 169.045 77.66 169.03 77.66C169.014 77.66 168.999 77.66 168.984 77.66C168.968 77.66 168.953 77.66 168.937 77.66C168.922 77.66 168.906 77.66 168.891 77.66C168.875 77.66 168.86 77.66 168.844 77.66C168.829 77.66 168.813 77.66 168.798 77.66C168.782 77.66 168.767 77.66 168.751 77.66C168.736 77.66 168.721 77.66 168.705 77.66C168.69 77.66 168.674 77.66 168.659 77.66C168.643 77.66 168.628 77.66 168.612 77.66C168.597 77.66 168.581 77.66 168.566 77.66C168.55 77.66 168.535 77.66 168.519 77.66C168.504 77.66 168.489 77.66 168.473 77.66C168.458 77.66 168.442 77.66 168.427 77.66C168.411 77.66 168.396 77.66 168.38 77.66C168.365 77.66 168.349 77.66 168.334 77.66C168.318 77.66 168.303 77.66 168.287 77.66C168.272 77.66 168.256 77.66 168.241 77.66C168.226 77.66 168.21 77.66 168.195 77.66C168.179 77.66 168.164 77.66 168.148 77.66C168.133 77.66 168.117 77.66 168.102 77.66C168.086 77.66 168.071 77.66 168.055 77.66C168.04 77.66 168.024 77.66 168.009 77.66C167.994 77.66 167.978 77.66 167.963 77.66C167.947 77.66 167.932 77.66 167.916 77.66C167.901 77.66 167.885 77.66 167.87 77.66C167.854 77.66 167.839 77.66 167.823 77.66C167.808 77.66 167.792 77.66 167.777 77.66C167.761 77.66 167.746 77.66 167.731 77.66C167.715 77.66 167.7 77.66 167.684 77.66C167.669 77.66 167.653 77.66 167.638 77.66C167.622 77.66 167.607 77.66 167.591 77.66C167.576 77.66 167.56 77.66 167.545 77.66C167.529 77.66 167.514 77.66 167.499 77.66C167.483 77.66 167.468 77.66 167.452 77.66C167.437 77.66 167.421 77.66 167.406 77.66C167.39 77.66 167.375 77.66 167.359 77.66C167.344 77.66 167.328 77.66 167.313 77.66C167.297 77.66 167.282 77.66 167.266 77.66C167.251 77.66 167.236 77.66 167.22 77.66C167.205 77.66 167.189 77.66 167.174 77.66C167.158 77.66 167.143 77.66 167.127 77.66C167.112 77.66 167.096 77.66 167.081 77.66C167.065 77.66 167.05 77.66 167.034 77.66C167.019 77.66 167.004 77.66 166.988 77.66C166.973 77.66 166.957 77.66 166.942 77.66C166.926 77.66 166.911 77.66 166.895 77.66C166.88 77.66 166.864 77.66 166.849 77.66C166.833 77.66 166.818 77.66 166.802 77.66C166.787 77.66 166.771 77.66 166.756 77.66C166.741 77.66 166.725 77.66 166.71 77.66C166.694 77.66 166.679 77.66 166.663 77.66C166.648 77.66 166.632 77.66 166.617 77.66C166.601 77.66 166.586 77.66 166.57 77.66C166.555 77.66 166.539 77.66 166.524 77.66C166.509 77.66 166.493 77.66 166.478 77.66C166.462 77.66 166.447 77.66 166.431 77.66C166.416 77.66 166.4 77.66 166.385 77.66C166.369 77.66 166.354 77.66 166.338 77.66C166.323 77.66 166.307 77.66 166.292 77.66C166.276 77.66 166.261 77.66 166.246 77.66C166.23 77.66 166.215 77.66 166.199 77.66C166.184 77.66 166.168 77.66 166.153 77.66C166.137 77.66 166.122 77.66 166.106 77.66C166.091 77.66 166.075 77.66 166.06 77.66C166.044 77.66 166.029 77.66 166.014 77.66C165.998 77.66 165.983 77.66 165.967 77.66C165.952 77.66 165.936 77.66 165.921 77.66C165.905 77.66 165.89 77.66 165.874 77.66C165.859 77.66 165.843 77.66 165.828 77.66C165.812 77.66 165.797 77.66 165.781 77.66C165.766 77.66 165.751 77.66 165.735 77.66C165.72 77.66 165.704 77.66 165.689 77.66C165.673 77.66 165.658 77.66 165.642 77.66C165.627 77.66 165.611 77.66 165.596 77.66C165.58 77.66 165.565 77.66 165.549 77.66C165.534 77.66 165.519 77.66 165.503 77.66C165.488 77.66 165.472 77.66 165.457 77.66C165.441 77.66 165.426 77.66 165.41 77.66C165.395 77.66 165.379 77.66 165.364 77.66C165.348 77.66 165.333 77.66 165.317 77.66C165.302 77.66 165.286 77.66 165.271 77.66C165.256 77.66 165.24 77.66 165.225 77.66C165.209 77.66 165.194 77.66 165.178 77.66C165.163 77.66 165.147 77.66 165.132 77.66C165.116 77.66 165.101 77.66 165.085 77.66C165.07 77.66 165.054 77.66 165.039 77.66C165.024 77.66 165.008 77.66 164.993 77.66C164.977 77.66 164.962 77.66 164.946 77.66C164.931 77.66 164.915 77.66 164.9 77.66C164.884 77.66 164.869 77.66 164.853 77.66C164.838 77.66 164.822 77.66 164.807 77.66C164.791 77.66 164.776 77.66 164.761 77.66C164.745 77.66 164.73 77.66 164.714 77.66C164.699 77.66 164.683 77.66 164.668 77.66C164.652 77.66 164.637 77.66 164.621 77.66C164.606 77.66 164.59 77.66 164.575 77.66C164.559 77.66 164.544 77.66 164.529 77.66C164.513 77.66 164.498 77.66 164.482 77.66C164.467 77.66 164.451 77.66 164.436 77.66C164.42 77.66 164.405 77.66 164.389 77.66C164.374 77.66 164.358 77.66 164.343 77.66C164.327 77.66 164.312 77.66 164.296 77.66C164.281 77.66 164.266 77.66 164.25 77.66C164.235 77.66 164.219 77.66 164.204 77.66C164.188 77.66 164.173 77.66 164.157 77.66C164.142 77.66 164.126 77.66 164.111 77.66C164.095 77.66 164.08 77.66 164.064 77.66C164.049 77.66 164.034 77.66 164.018 77.66C164.003 77.66 163.987 77.66 163.972 77.66C163.956 77.66 163.941 77.66 163.925 77.66C163.91 77.66 163.894 77.66 163.879 77.66C163.863 77.66 163.848 77.66 163.832 77.66C163.817 77.66 163.801 77.66 163.786 77.66C163.771 77.66 163.755 77.66 163.74 77.66C163.724 77.66 163.709 77.66 163.693 77.66C163.678 77.66 163.662 77.66 163.647 77.66C163.631 77.66 163.616 77.66 163.6 77.66C163.585 77.66 163.569 77.66 163.554 77.66C163.539 77.66 163.523 77.66 163.508 77.66C163.492 77.66 163.477 77.66 163.461 77.66C163.446 77.66 163.43 77.66 163.415 77.66C163.399 77.66 163.384 77.66 163.368 77.66C163.353 77.66 163.337 77.66 163.322 77.66C163.306 77.66 163.291 77.66 163.276 77.66C163.26 77.66 163.245 77.66 163.229 77.66C163.214 77.66 163.198 77.66 163.183 77.66C163.167 77.66 163.152 77.66 163.136 77.66C163.121 77.66 163.105 77.66 163.09 77.66C163.074 77.66 163.059 77.66 163.044 77.66C163.028 77.66 163.013 77.66 162.997 77.66C162.982 77.66 162.966 77.66 162.951 77.66C162.935 77.66 162.92 77.66 162.904 77.66C162.889 77.66 162.873 77.66 162.858 77.66C162.842 77.66 162.827 77.66 162.811 77.66C162.796 77.66 162.781 77.66 162.765 77.66C162.75 77.66 162.734 77.66 162.719 77.66C162.703 77.66 162.688 77.66 162.672 77.66C162.657 77.66 162.641 77.66 162.626 77.66C162.61 77.66 162.595 77.66 162.579 77.66C162.564 77.66 162.549 77.66 162.533 77.66C162.518 77.66 162.502 77.66 162.487 77.66C162.471 77.66 162.456 77.66 162.44 77.66C162.425 77.66 162.409 77.66 162.394 77.66C162.378 77.66 162.363 77.66 162.347 77.66C162.332 77.66 162.316 77.66 162.301 77.66C162.286 77.66 162.27 77.66 162.255 77.66C162.239 77.66 162.224 77.66 162.208 77.66C162.193 77.66 162.177 77.66 162.162 77.66C162.146 77.66 162.131 77.66 162.115 77.66C162.1 77.66 162.084 77.66 162.069 77.66C162.054 77.66 162.038 77.66 162.023 77.66C162.007 77.66 161.992 77.66 161.976 77.66C161.961 77.66 161.945 77.66 161.93 77.66C161.914 77.66 161.899 77.66 161.883 77.66C161.868 77.66 161.852 77.66 161.837 77.66C161.821 77.66 161.806 77.66 161.791 77.66C161.775 77.66 161.76 77.66 161.744 77.66C161.729 77.66 161.713 77.66 161.698 77.66C161.682 77.66 161.667 77.66 161.651 77.66C161.636 77.66 161.62 77.66 161.605 77.66C161.589 77.66 161.574 77.66 161.559 77.66C161.543 77.66 161.528 77.66 161.512 77.66C161.497 77.66 161.481 77.66 161.466 77.66C161.45 77.66 161.435 77.66 161.419 77.66C161.404 77.66 161.388 77.66 161.373 77.66C161.357 77.66 161.342 77.66 161.326 77.66C161.311 77.66 161.296 77.66 161.28 77.66C161.265 77.66 161.249 77.66 161.234 77.66C161.218 77.66 161.203 77.66 161.187 77.66C161.172 77.66 161.156 77.66 161.141 77.66C161.125 77.66 161.11 77.66 161.094 77.66C161.079 77.66 161.064 77.66 161.048 77.66C161.033 77.66 161.017 77.66 161.002 77.66C160.986 77.66 160.971 77.66 160.955 77.66C160.94 77.66 160.924 77.66 160.909 77.66C160.893 77.66 160.878 77.66 160.862 77.66C160.847 77.66 160.831 77.66 160.816 77.66C160.801 77.66 160.785 77.66 160.77 77.66C160.754 77.66 160.739 77.66 160.723 77.66C160.708 77.66 160.692 77.66 160.677 77.66C160.661 77.66 160.646 77.66 160.63 77.66C160.615 77.66 160.599 77.66 160.584 77.66C160.569 77.66 160.553 77.66 160.538 77.66C160.522 77.66 160.507 77.66 160.491 77.66C160.476 77.66 160.46 77.66 160.445 77.66C160.429 77.66 160.414 77.66 160.398 77.66C160.383 77.66 160.367 77.66 160.352 77.66C160.336 77.66 160.321 77.66 160.306 77.66C160.29 77.66 160.275 77.66 160.259 77.66C160.244 77.66 160.228 77.66 160.213 77.66C160.197 77.66 160.182 77.66 160.166 77.66C160.151 77.66 160.135 77.66 160.12 77.66C160.104 77.66 160.089 77.66 160.074 77.66C160.058 77.66 160.043 77.66 160.027 77.66C160.012 77.66 159.996 77.66 159.981 77.66C159.965 77.66 159.95 77.66 159.934 77.66C159.919 77.66 159.903 77.66 159.888 77.66C159.872 77.66 159.857 77.66 159.841 77.66C159.826 77.66 159.811 77.66 159.795 77.66C159.78 77.66 159.764 77.66 159.749 77.66C159.733 77.66 159.718 77.66 159.702 77.66C159.687 77.66 159.671 77.66 159.656 77.66C159.64 77.66 159.625 77.66 159.609 77.66C159.594 77.66 159.579 77.66 159.563 77.66C159.548 77.66 159.532 77.66 159.517 77.66C159.501 77.66 159.486 77.66 159.47 77.66C159.455 77.66 159.439 77.66 159.424 77.66C159.408 77.66 159.393 77.66 159.377 77.66C159.362 77.66 159.346 77.66 159.331 77.66C159.316 77.66 159.3 77.66 159.285 77.66C159.269 77.66 159.254 77.66 159.238 77.66C159.223 77.66 159.207 77.66 159.192 77.66C159.176 77.66 159.161 77.66 159.145 77.66C159.13 77.66 159.114 77.66 159.099 77.66C159.084 77.66 159.068 77.66 159.053 77.66C159.037 77.66 159.022 77.66 159.006 77.66C158.991 77.66 158.975 77.66 158.96 77.66C158.944 77.66 158.929 77.66 158.913 77.66C158.898 77.66 158.882 77.66 158.867 77.66C158.851 77.66 158.836 77.66 158.821 77.66C158.805 77.66 158.79 77.66 158.774 77.66C158.759 77.66 158.743 77.66 158.728 77.66C158.712 77.66 158.697 77.66 158.681 77.66C158.666 77.66 158.65 77.66 158.635 77.66C158.619 77.66 158.604 77.66 158.589 77.66C158.573 77.66 158.558 77.66 158.542 77.66C158.527 77.66 158.511 77.66 158.496 77.66C158.48 77.66 158.465 77.66 158.449 77.66C158.434 77.66 158.418 77.66 158.403 77.66C158.387 77.66 158.372 77.66 158.356 77.66C158.341 77.66 158.326 77.66 158.31 77.66C158.295 77.66 158.279 77.66 158.264 77.66C158.248 77.66 158.233 77.66 158.217 77.66C158.202 77.66 158.186 77.66 158.171 77.66C158.155 77.66 158.14 77.66 158.124 77.66C158.109 77.66 158.094 77.66 158.078 77.66C158.063 77.66 158.047 77.66 158.032 77.66C158.016 77.66 158.001 77.66 157.985 77.66C157.97 77.66 157.954 77.66 157.939 77.66C157.923 77.66 157.908 77.66 157.892 77.66C157.877 77.66 157.861 77.66 157.846 77.66C157.831 77.66 157.815 77.66 157.8 77.66C157.784 77.66 157.769 77.66 157.753 77.66C157.738 77.66 157.722 77.66 157.707 77.66C157.691 77.66 157.676 77.66 157.66 77.66C157.645 77.66 157.629 77.66 157.614 77.66C157.599 77.66 157.583 77.66 157.568 77.66C157.552 77.66 157.537 77.66 157.521 77.66C157.506 77.66 157.49 77.66 157.475 77.66C157.459 77.66 157.444 77.66 157.428 77.66C157.413 77.66 157.397 77.66 157.382 77.66C157.366 77.66 157.351 77.66 157.336 77.66C157.32 77.66 157.305 77.66 157.289 77.66C157.274 77.66 157.258 77.66 157.243 77.66C157.227 77.66 157.212 77.66 157.196 77.66C157.181 77.66 157.165 77.66 157.15 77.66C157.134 77.66 157.119 77.66 157.104 77.66C157.088 77.66 157.073 77.66 157.057 77.66C157.042 77.66 157.026 77.66 157.011 77.66C156.995 77.66 156.98 77.66 156.964 77.66C156.949 77.66 156.933 77.66 156.918 77.66C156.902 77.66 156.887 77.66 156.871 77.66C156.856 77.66 156.841 77.66 156.825 77.66C156.81 77.66 156.794 77.66 156.779 77.66C156.763 77.66 156.748 77.66 156.732 77.66C156.717 77.66 156.701 77.66 156.686 77.66C156.67 77.66 156.655 77.66 156.639 77.66C156.624 77.66 156.609 77.66 156.593 77.66C156.578 77.66 156.562 77.66 156.547 77.66C156.531 77.66 156.516 77.66 156.5 77.66C156.485 77.66 156.469 77.66 156.454 77.66C156.438 77.66 156.423 77.66 156.407 77.66C156.392 77.66 156.376 77.66 156.361 77.66C156.346 77.66 156.33 77.66 156.315 77.66C156.299 77.66 156.284 77.66 156.268 77.66C156.253 77.66 156.237 77.66 156.222 77.66C156.206 77.66 156.191 77.66 156.175 77.66C156.16 77.66 156.144 77.66 156.129 77.66C156.114 77.66 156.098 77.66 156.083 77.66C156.067 77.66 156.052 77.66 156.036 77.66C156.021 77.66 156.005 77.66 155.99 77.66C155.974 77.66 155.959 77.66 155.943 77.66C155.928 77.66 155.912 77.66 155.897 77.66C155.881 77.66 155.866 77.66 155.851 77.66C155.835 77.66 155.82 77.66 155.804 77.66C155.789 77.66 155.773 77.66 155.758 77.66C155.742 77.66 155.727 77.66 155.711 77.66C155.696 77.66 155.68 77.66 155.665 77.66C155.649 77.66 155.634 77.66 155.619 77.66C155.603 77.66 155.588 77.66 155.572 77.66C155.557 77.66 155.541 77.66 155.526 77.66C155.51 77.66 155.495 77.66 155.479 77.66C155.464 77.66 155.448 77.66 155.433 77.66C155.417 77.66 155.402 77.66 155.386 77.66C155.371 77.66 155.356 77.66 155.34 77.66C155.325 77.66 155.309 77.66 155.294 77.66C155.278 77.66 155.263 77.66 155.247 77.66C155.232 77.66 155.216 77.66 155.201 77.66C155.185 77.66 155.17 77.66 155.154 77.66C155.139 77.66 155.124 77.66 155.108 77.66C155.093 77.66 155.077 77.66 155.062 77.66C155.046 77.66 155.031 77.66 155.015 77.66C155 77.66 154.984 77.66 154.969 77.66C154.953 77.66 154.938 77.66 154.922 77.66C154.907 77.66 154.891 77.66 154.876 77.66C154.861 77.66 154.845 77.66 154.83 77.66C154.814 77.66 154.799 77.66 154.783 77.66C154.768 77.66 154.752 77.66 154.737 77.66C154.721 77.66 154.706 77.66 154.69 77.66C154.675 77.66 154.659 77.66 154.644 77.66C154.629 77.66 154.613 77.66 154.598 77.66C154.582 77.66 154.567 77.66 154.551 77.66C154.536 77.66 154.52 77.66 154.505 77.66C154.489 77.66 154.474 77.66 154.458 77.66C154.443 77.66 154.427 77.66 154.412 77.66C154.396 77.66 154.381 77.66 154.366 77.66C154.35 77.66 154.335 77.66 154.319 77.66C154.304 77.66 154.288 77.66 154.273 77.66C154.257 77.66 154.242 77.66 154.226 77.66C154.211 77.66 154.195 77.66 154.18 77.66C154.164 77.66 154.149 77.66 154.134 77.66C154.118 77.66 154.103 77.66 154.087 77.66C154.072 77.66 154.056 77.66 154.041 77.66C154.025 77.66 154.01 77.66 153.994 77.66C153.979 77.66 153.963 77.66 153.948 77.66C153.932 77.66 153.917 77.66 153.901 77.66C153.886 77.66 153.871 77.66 153.855 77.66C153.84 77.66 153.824 77.66 153.809 77.66C153.793 77.66 153.778 77.66 153.762 77.66C153.747 77.66 153.731 77.66 153.716 77.66C153.7 77.66 153.685 77.66 153.669 77.66C153.654 77.66 153.639 77.66 153.623 77.66C153.608 77.66 153.592 77.66 153.577 77.66C153.561 77.66 153.546 77.66 153.53 77.66C153.515 77.66 153.499 77.66 153.484 77.66C153.468 77.66 153.453 77.66 153.437 77.66C153.422 77.66 153.406 77.66 153.391 77.66C153.376 77.66 153.36 77.66 153.345 77.66C153.329 77.66 153.314 77.66 153.298 77.66C153.283 77.66 153.267 77.66 153.252 77.66C153.236 77.66 153.221 77.66 153.205 77.66C153.19 77.66 153.174 77.66 153.159 77.66C153.144 77.66 153.128 77.66 153.113 77.66C153.097 77.66 153.082 77.66 153.066 77.66C153.051 77.66 153.035 77.66 153.02 77.66C153.004 77.66 152.989 77.66 152.973 77.66C152.958 77.66 152.942 77.66 152.927 77.66C152.911 77.66 152.896 77.66 152.881 77.66C152.865 77.66 152.85 77.66 152.834 77.66C152.819 77.66 152.803 77.66 152.788 77.66C152.772 77.66 152.757 77.66 152.741 77.66C152.726 77.66 152.71 77.66 152.695 77.66C152.679 77.66 152.664 77.66 152.649 77.66C152.633 77.66 152.618 77.66 152.602 77.66C152.587 77.66 152.571 77.66 152.556 77.66C152.54 77.66 152.525 77.66 152.509 77.66C152.494 77.66 152.478 77.66 152.463 77.66C152.447 77.66 152.432 77.66 152.416 77.66C152.401 77.66 152.386 77.66 152.37 77.66C152.355 77.66 152.339 77.66 152.324 77.66C152.308 77.66 152.293 77.66 152.277 77.66C152.262 77.66 152.246 77.66 152.231 77.66C152.215 77.66 152.2 77.66 152.184 77.66C152.169 77.66 152.154 77.66 152.138 77.66C152.123 77.66 152.107 77.66 152.092 77.66C152.076 77.66 152.061 77.66 152.045 77.66C152.03 77.66 152.014 77.66 151.999 77.66C151.983 77.66 151.968 77.66 151.952 77.66C151.937 77.66 151.921 77.66 151.906 77.66C151.891 77.66 151.875 77.66 151.86 77.66C151.844 77.66 151.829 77.66 151.813 77.66V97.66C151.829 97.66 151.844 97.66 151.86 97.66C151.875 97.66 151.891 97.66 151.906 97.66C151.921 97.66 151.937 97.66 151.952 97.66C151.968 97.66 151.983 97.66 151.999 97.66C152.014 97.66 152.03 97.66 152.045 97.66C152.061 97.66 152.076 97.66 152.092 97.66C152.107 97.66 152.123 97.66 152.138 97.66C152.154 97.66 152.169 97.66 152.184 97.66C152.2 97.66 152.215 97.66 152.231 97.66C152.246 97.66 152.262 97.66 152.277 97.66C152.293 97.66 152.308 97.66 152.324 97.66C152.339 97.66 152.355 97.66 152.37 97.66C152.386 97.66 152.401 97.66 152.416 97.66C152.432 97.66 152.447 97.66 152.463 97.66C152.478 97.66 152.494 97.66 152.509 97.66C152.525 97.66 152.54 97.66 152.556 97.66C152.571 97.66 152.587 97.66 152.602 97.66C152.618 97.66 152.633 97.66 152.649 97.66C152.664 97.66 152.679 97.66 152.695 97.66C152.71 97.66 152.726 97.66 152.741 97.66C152.757 97.66 152.772 97.66 152.788 97.66C152.803 97.66 152.819 97.66 152.834 97.66C152.85 97.66 152.865 97.66 152.881 97.66C152.896 97.66 152.911 97.66 152.927 97.66C152.942 97.66 152.958 97.66 152.973 97.66C152.989 97.66 153.004 97.66 153.02 97.66C153.035 97.66 153.051 97.66 153.066 97.66C153.082 97.66 153.097 97.66 153.113 97.66C153.128 97.66 153.144 97.66 153.159 97.66C153.174 97.66 153.19 97.66 153.205 97.66C153.221 97.66 153.236 97.66 153.252 97.66C153.267 97.66 153.283 97.66 153.298 97.66C153.314 97.66 153.329 97.66 153.345 97.66C153.36 97.66 153.376 97.66 153.391 97.66C153.406 97.66 153.422 97.66 153.437 97.66C153.453 97.66 153.468 97.66 153.484 97.66C153.499 97.66 153.515 97.66 153.53 97.66C153.546 97.66 153.561 97.66 153.577 97.66C153.592 97.66 153.608 97.66 153.623 97.66C153.639 97.66 153.654 97.66 153.669 97.66C153.685 97.66 153.7 97.66 153.716 97.66C153.731 97.66 153.747 97.66 153.762 97.66C153.778 97.66 153.793 97.66 153.809 97.66C153.824 97.66 153.84 97.66 153.855 97.66C153.871 97.66 153.886 97.66 153.901 97.66C153.917 97.66 153.932 97.66 153.948 97.66C153.963 97.66 153.979 97.66 153.994 97.66C154.01 97.66 154.025 97.66 154.041 97.66C154.056 97.66 154.072 97.66 154.087 97.66C154.103 97.66 154.118 97.66 154.134 97.66C154.149 97.66 154.164 97.66 154.18 97.66C154.195 97.66 154.211 97.66 154.226 97.66C154.242 97.66 154.257 97.66 154.273 97.66C154.288 97.66 154.304 97.66 154.319 97.66C154.335 97.66 154.35 97.66 154.366 97.66C154.381 97.66 154.396 97.66 154.412 97.66C154.427 97.66 154.443 97.66 154.458 97.66C154.474 97.66 154.489 97.66 154.505 97.66C154.52 97.66 154.536 97.66 154.551 97.66C154.567 97.66 154.582 97.66 154.598 97.66C154.613 97.66 154.629 97.66 154.644 97.66C154.659 97.66 154.675 97.66 154.69 97.66C154.706 97.66 154.721 97.66 154.737 97.66C154.752 97.66 154.768 97.66 154.783 97.66C154.799 97.66 154.814 97.66 154.83 97.66C154.845 97.66 154.861 97.66 154.876 97.66C154.891 97.66 154.907 97.66 154.922 97.66C154.938 97.66 154.953 97.66 154.969 97.66C154.984 97.66 155 97.66 155.015 97.66C155.031 97.66 155.046 97.66 155.062 97.66C155.077 97.66 155.093 97.66 155.108 97.66C155.124 97.66 155.139 97.66 155.154 97.66C155.17 97.66 155.185 97.66 155.201 97.66C155.216 97.66 155.232 97.66 155.247 97.66C155.263 97.66 155.278 97.66 155.294 97.66C155.309 97.66 155.325 97.66 155.34 97.66C155.356 97.66 155.371 97.66 155.386 97.66C155.402 97.66 155.417 97.66 155.433 97.66C155.448 97.66 155.464 97.66 155.479 97.66C155.495 97.66 155.51 97.66 155.526 97.66C155.541 97.66 155.557 97.66 155.572 97.66C155.588 97.66 155.603 97.66 155.619 97.66C155.634 97.66 155.649 97.66 155.665 97.66C155.68 97.66 155.696 97.66 155.711 97.66C155.727 97.66 155.742 97.66 155.758 97.66C155.773 97.66 155.789 97.66 155.804 97.66C155.82 97.66 155.835 97.66 155.851 97.66C155.866 97.66 155.881 97.66 155.897 97.66C155.912 97.66 155.928 97.66 155.943 97.66C155.959 97.66 155.974 97.66 155.99 97.66C156.005 97.66 156.021 97.66 156.036 97.66C156.052 97.66 156.067 97.66 156.083 97.66C156.098 97.66 156.114 97.66 156.129 97.66C156.144 97.66 156.16 97.66 156.175 97.66C156.191 97.66 156.206 97.66 156.222 97.66C156.237 97.66 156.253 97.66 156.268 97.66C156.284 97.66 156.299 97.66 156.315 97.66C156.33 97.66 156.346 97.66 156.361 97.66C156.376 97.66 156.392 97.66 156.407 97.66C156.423 97.66 156.438 97.66 156.454 97.66C156.469 97.66 156.485 97.66 156.5 97.66C156.516 97.66 156.531 97.66 156.547 97.66C156.562 97.66 156.578 97.66 156.593 97.66C156.609 97.66 156.624 97.66 156.639 97.66C156.655 97.66 156.67 97.66 156.686 97.66C156.701 97.66 156.717 97.66 156.732 97.66C156.748 97.66 156.763 97.66 156.779 97.66C156.794 97.66 156.81 97.66 156.825 97.66C156.841 97.66 156.856 97.66 156.871 97.66C156.887 97.66 156.902 97.66 156.918 97.66C156.933 97.66 156.949 97.66 156.964 97.66C156.98 97.66 156.995 97.66 157.011 97.66C157.026 97.66 157.042 97.66 157.057 97.66C157.073 97.66 157.088 97.66 157.104 97.66C157.119 97.66 157.134 97.66 157.15 97.66C157.165 97.66 157.181 97.66 157.196 97.66C157.212 97.66 157.227 97.66 157.243 97.66C157.258 97.66 157.274 97.66 157.289 97.66C157.305 97.66 157.32 97.66 157.336 97.66C157.351 97.66 157.366 97.66 157.382 97.66C157.397 97.66 157.413 97.66 157.428 97.66C157.444 97.66 157.459 97.66 157.475 97.66C157.49 97.66 157.506 97.66 157.521 97.66C157.537 97.66 157.552 97.66 157.568 97.66C157.583 97.66 157.599 97.66 157.614 97.66C157.629 97.66 157.645 97.66 157.66 97.66C157.676 97.66 157.691 97.66 157.707 97.66C157.722 97.66 157.738 97.66 157.753 97.66C157.769 97.66 157.784 97.66 157.8 97.66C157.815 97.66 157.831 97.66 157.846 97.66C157.861 97.66 157.877 97.66 157.892 97.66C157.908 97.66 157.923 97.66 157.939 97.66C157.954 97.66 157.97 97.66 157.985 97.66C158.001 97.66 158.016 97.66 158.032 97.66C158.047 97.66 158.063 97.66 158.078 97.66C158.094 97.66 158.109 97.66 158.124 97.66C158.14 97.66 158.155 97.66 158.171 97.66C158.186 97.66 158.202 97.66 158.217 97.66C158.233 97.66 158.248 97.66 158.264 97.66C158.279 97.66 158.295 97.66 158.31 97.66C158.326 97.66 158.341 97.66 158.356 97.66C158.372 97.66 158.387 97.66 158.403 97.66C158.418 97.66 158.434 97.66 158.449 97.66C158.465 97.66 158.48 97.66 158.496 97.66C158.511 97.66 158.527 97.66 158.542 97.66C158.558 97.66 158.573 97.66 158.589 97.66C158.604 97.66 158.619 97.66 158.635 97.66C158.65 97.66 158.666 97.66 158.681 97.66C158.697 97.66 158.712 97.66 158.728 97.66C158.743 97.66 158.759 97.66 158.774 97.66C158.79 97.66 158.805 97.66 158.821 97.66C158.836 97.66 158.851 97.66 158.867 97.66C158.882 97.66 158.898 97.66 158.913 97.66C158.929 97.66 158.944 97.66 158.96 97.66C158.975 97.66 158.991 97.66 159.006 97.66C159.022 97.66 159.037 97.66 159.053 97.66C159.068 97.66 159.084 97.66 159.099 97.66C159.114 97.66 159.13 97.66 159.145 97.66C159.161 97.66 159.176 97.66 159.192 97.66C159.207 97.66 159.223 97.66 159.238 97.66C159.254 97.66 159.269 97.66 159.285 97.66C159.3 97.66 159.316 97.66 159.331 97.66C159.346 97.66 159.362 97.66 159.377 97.66C159.393 97.66 159.408 97.66 159.424 97.66C159.439 97.66 159.455 97.66 159.47 97.66C159.486 97.66 159.501 97.66 159.517 97.66C159.532 97.66 159.548 97.66 159.563 97.66C159.579 97.66 159.594 97.66 159.609 97.66C159.625 97.66 159.64 97.66 159.656 97.66C159.671 97.66 159.687 97.66 159.702 97.66C159.718 97.66 159.733 97.66 159.749 97.66C159.764 97.66 159.78 97.66 159.795 97.66C159.811 97.66 159.826 97.66 159.841 97.66C159.857 97.66 159.872 97.66 159.888 97.66C159.903 97.66 159.919 97.66 159.934 97.66C159.95 97.66 159.965 97.66 159.981 97.66C159.996 97.66 160.012 97.66 160.027 97.66C160.043 97.66 160.058 97.66 160.074 97.66C160.089 97.66 160.104 97.66 160.12 97.66C160.135 97.66 160.151 97.66 160.166 97.66C160.182 97.66 160.197 97.66 160.213 97.66C160.228 97.66 160.244 97.66 160.259 97.66C160.275 97.66 160.29 97.66 160.306 97.66C160.321 97.66 160.336 97.66 160.352 97.66C160.367 97.66 160.383 97.66 160.398 97.66C160.414 97.66 160.429 97.66 160.445 97.66C160.46 97.66 160.476 97.66 160.491 97.66C160.507 97.66 160.522 97.66 160.538 97.66C160.553 97.66 160.569 97.66 160.584 97.66C160.599 97.66 160.615 97.66 160.63 97.66C160.646 97.66 160.661 97.66 160.677 97.66C160.692 97.66 160.708 97.66 160.723 97.66C160.739 97.66 160.754 97.66 160.77 97.66C160.785 97.66 160.801 97.66 160.816 97.66C160.831 97.66 160.847 97.66 160.862 97.66C160.878 97.66 160.893 97.66 160.909 97.66C160.924 97.66 160.94 97.66 160.955 97.66C160.971 97.66 160.986 97.66 161.002 97.66C161.017 97.66 161.033 97.66 161.048 97.66C161.064 97.66 161.079 97.66 161.094 97.66C161.11 97.66 161.125 97.66 161.141 97.66C161.156 97.66 161.172 97.66 161.187 97.66C161.203 97.66 161.218 97.66 161.234 97.66C161.249 97.66 161.265 97.66 161.28 97.66C161.296 97.66 161.311 97.66 161.326 97.66C161.342 97.66 161.357 97.66 161.373 97.66C161.388 97.66 161.404 97.66 161.419 97.66C161.435 97.66 161.45 97.66 161.466 97.66C161.481 97.66 161.497 97.66 161.512 97.66C161.528 97.66 161.543 97.66 161.559 97.66C161.574 97.66 161.589 97.66 161.605 97.66C161.62 97.66 161.636 97.66 161.651 97.66C161.667 97.66 161.682 97.66 161.698 97.66C161.713 97.66 161.729 97.66 161.744 97.66C161.76 97.66 161.775 97.66 161.791 97.66C161.806 97.66 161.821 97.66 161.837 97.66C161.852 97.66 161.868 97.66 161.883 97.66C161.899 97.66 161.914 97.66 161.93 97.66C161.945 97.66 161.961 97.66 161.976 97.66C161.992 97.66 162.007 97.66 162.023 97.66C162.038 97.66 162.054 97.66 162.069 97.66C162.084 97.66 162.1 97.66 162.115 97.66C162.131 97.66 162.146 97.66 162.162 97.66C162.177 97.66 162.193 97.66 162.208 97.66C162.224 97.66 162.239 97.66 162.255 97.66C162.27 97.66 162.286 97.66 162.301 97.66C162.316 97.66 162.332 97.66 162.347 97.66C162.363 97.66 162.378 97.66 162.394 97.66C162.409 97.66 162.425 97.66 162.44 97.66C162.456 97.66 162.471 97.66 162.487 97.66C162.502 97.66 162.518 97.66 162.533 97.66C162.549 97.66 162.564 97.66 162.579 97.66C162.595 97.66 162.61 97.66 162.626 97.66C162.641 97.66 162.657 97.66 162.672 97.66C162.688 97.66 162.703 97.66 162.719 97.66C162.734 97.66 162.75 97.66 162.765 97.66C162.781 97.66 162.796 97.66 162.811 97.66C162.827 97.66 162.842 97.66 162.858 97.66C162.873 97.66 162.889 97.66 162.904 97.66C162.92 97.66 162.935 97.66 162.951 97.66C162.966 97.66 162.982 97.66 162.997 97.66C163.013 97.66 163.028 97.66 163.044 97.66C163.059 97.66 163.074 97.66 163.09 97.66C163.105 97.66 163.121 97.66 163.136 97.66C163.152 97.66 163.167 97.66 163.183 97.66C163.198 97.66 163.214 97.66 163.229 97.66C163.245 97.66 163.26 97.66 163.276 97.66C163.291 97.66 163.306 97.66 163.322 97.66C163.337 97.66 163.353 97.66 163.368 97.66C163.384 97.66 163.399 97.66 163.415 97.66C163.43 97.66 163.446 97.66 163.461 97.66C163.477 97.66 163.492 97.66 163.508 97.66C163.523 97.66 163.539 97.66 163.554 97.66C163.569 97.66 163.585 97.66 163.6 97.66C163.616 97.66 163.631 97.66 163.647 97.66C163.662 97.66 163.678 97.66 163.693 97.66C163.709 97.66 163.724 97.66 163.74 97.66C163.755 97.66 163.771 97.66 163.786 97.66C163.801 97.66 163.817 97.66 163.832 97.66C163.848 97.66 163.863 97.66 163.879 97.66C163.894 97.66 163.91 97.66 163.925 97.66C163.941 97.66 163.956 97.66 163.972 97.66C163.987 97.66 164.003 97.66 164.018 97.66C164.034 97.66 164.049 97.66 164.064 97.66C164.08 97.66 164.095 97.66 164.111 97.66C164.126 97.66 164.142 97.66 164.157 97.66C164.173 97.66 164.188 97.66 164.204 97.66C164.219 97.66 164.235 97.66 164.25 97.66C164.266 97.66 164.281 97.66 164.296 97.66C164.312 97.66 164.327 97.66 164.343 97.66C164.358 97.66 164.374 97.66 164.389 97.66C164.405 97.66 164.42 97.66 164.436 97.66C164.451 97.66 164.467 97.66 164.482 97.66C164.498 97.66 164.513 97.66 164.529 97.66C164.544 97.66 164.559 97.66 164.575 97.66C164.59 97.66 164.606 97.66 164.621 97.66C164.637 97.66 164.652 97.66 164.668 97.66C164.683 97.66 164.699 97.66 164.714 97.66C164.73 97.66 164.745 97.66 164.761 97.66C164.776 97.66 164.791 97.66 164.807 97.66C164.822 97.66 164.838 97.66 164.853 97.66C164.869 97.66 164.884 97.66 164.9 97.66C164.915 97.66 164.931 97.66 164.946 97.66C164.962 97.66 164.977 97.66 164.993 97.66C165.008 97.66 165.024 97.66 165.039 97.66C165.054 97.66 165.07 97.66 165.085 97.66C165.101 97.66 165.116 97.66 165.132 97.66C165.147 97.66 165.163 97.66 165.178 97.66C165.194 97.66 165.209 97.66 165.225 97.66C165.24 97.66 165.256 97.66 165.271 97.66C165.286 97.66 165.302 97.66 165.317 97.66C165.333 97.66 165.348 97.66 165.364 97.66C165.379 97.66 165.395 97.66 165.41 97.66C165.426 97.66 165.441 97.66 165.457 97.66C165.472 97.66 165.488 97.66 165.503 97.66C165.519 97.66 165.534 97.66 165.549 97.66C165.565 97.66 165.58 97.66 165.596 97.66C165.611 97.66 165.627 97.66 165.642 97.66C165.658 97.66 165.673 97.66 165.689 97.66C165.704 97.66 165.72 97.66 165.735 97.66C165.751 97.66 165.766 97.66 165.781 97.66C165.797 97.66 165.812 97.66 165.828 97.66C165.843 97.66 165.859 97.66 165.874 97.66C165.89 97.66 165.905 97.66 165.921 97.66C165.936 97.66 165.952 97.66 165.967 97.66C165.983 97.66 165.998 97.66 166.014 97.66C166.029 97.66 166.044 97.66 166.06 97.66C166.075 97.66 166.091 97.66 166.106 97.66C166.122 97.66 166.137 97.66 166.153 97.66C166.168 97.66 166.184 97.66 166.199 97.66C166.215 97.66 166.23 97.66 166.246 97.66C166.261 97.66 166.276 97.66 166.292 97.66C166.307 97.66 166.323 97.66 166.338 97.66C166.354 97.66 166.369 97.66 166.385 97.66C166.4 97.66 166.416 97.66 166.431 97.66C166.447 97.66 166.462 97.66 166.478 97.66C166.493 97.66 166.509 97.66 166.524 97.66C166.539 97.66 166.555 97.66 166.57 97.66C166.586 97.66 166.601 97.66 166.617 97.66C166.632 97.66 166.648 97.66 166.663 97.66C166.679 97.66 166.694 97.66 166.71 97.66C166.725 97.66 166.741 97.66 166.756 97.66C166.771 97.66 166.787 97.66 166.802 97.66C166.818 97.66 166.833 97.66 166.849 97.66C166.864 97.66 166.88 97.66 166.895 97.66C166.911 97.66 166.926 97.66 166.942 97.66C166.957 97.66 166.973 97.66 166.988 97.66C167.004 97.66 167.019 97.66 167.034 97.66C167.05 97.66 167.065 97.66 167.081 97.66C167.096 97.66 167.112 97.66 167.127 97.66C167.143 97.66 167.158 97.66 167.174 97.66C167.189 97.66 167.205 97.66 167.22 97.66C167.236 97.66 167.251 97.66 167.266 97.66C167.282 97.66 167.297 97.66 167.313 97.66C167.328 97.66 167.344 97.66 167.359 97.66C167.375 97.66 167.39 97.66 167.406 97.66C167.421 97.66 167.437 97.66 167.452 97.66C167.468 97.66 167.483 97.66 167.499 97.66C167.514 97.66 167.529 97.66 167.545 97.66C167.56 97.66 167.576 97.66 167.591 97.66C167.607 97.66 167.622 97.66 167.638 97.66C167.653 97.66 167.669 97.66 167.684 97.66C167.7 97.66 167.715 97.66 167.731 97.66C167.746 97.66 167.761 97.66 167.777 97.66C167.792 97.66 167.808 97.66 167.823 97.66C167.839 97.66 167.854 97.66 167.87 97.66C167.885 97.66 167.901 97.66 167.916 97.66C167.932 97.66 167.947 97.66 167.963 97.66C167.978 97.66 167.994 97.66 168.009 97.66C168.024 97.66 168.04 97.66 168.055 97.66C168.071 97.66 168.086 97.66 168.102 97.66C168.117 97.66 168.133 97.66 168.148 97.66C168.164 97.66 168.179 97.66 168.195 97.66C168.21 97.66 168.226 97.66 168.241 97.66C168.256 97.66 168.272 97.66 168.287 97.66C168.303 97.66 168.318 97.66 168.334 97.66C168.349 97.66 168.365 97.66 168.38 97.66C168.396 97.66 168.411 97.66 168.427 97.66C168.442 97.66 168.458 97.66 168.473 97.66C168.489 97.66 168.504 97.66 168.519 97.66C168.535 97.66 168.55 97.66 168.566 97.66C168.581 97.66 168.597 97.66 168.612 97.66C168.628 97.66 168.643 97.66 168.659 97.66C168.674 97.66 168.69 97.66 168.705 97.66C168.721 97.66 168.736 97.66 168.751 97.66C168.767 97.66 168.782 97.66 168.798 97.66C168.813 97.66 168.829 97.66 168.844 97.66C168.86 97.66 168.875 97.66 168.891 97.66C168.906 97.66 168.922 97.66 168.937 97.66C168.953 97.66 168.968 97.66 168.984 97.66C168.999 97.66 169.014 97.66 169.03 97.66C169.045 97.66 169.061 97.66 169.076 97.66C169.092 97.66 169.107 97.66 169.123 97.66C169.138 97.66 169.154 97.66 169.169 97.66C169.185 97.66 169.2 97.66 169.216 97.66C169.231 97.66 169.246 97.66 169.262 97.66C169.277 97.66 169.293 97.66 169.308 97.66C169.324 97.66 169.339 97.66 169.355 97.66C169.37 97.66 169.386 97.66 169.401 97.66C169.417 97.66 169.432 97.66 169.448 97.66C169.463 97.66 169.479 97.66 169.494 97.66C169.509 97.66 169.525 97.66 169.54 97.66C169.556 97.66 169.571 97.66 169.587 97.66C169.602 97.66 169.618 97.66 169.633 97.66C169.649 97.66 169.664 97.66 169.68 97.66C169.695 97.66 169.711 97.66 169.726 97.66C169.741 97.66 169.757 97.66 169.772 97.66C169.788 97.66 169.803 97.66 169.819 97.66C169.834 97.66 169.85 97.66 169.865 97.66C169.881 97.66 169.896 97.66 169.912 97.66C169.927 97.66 169.943 97.66 169.958 97.66C169.974 97.66 169.989 97.66 170.004 97.66C170.02 97.66 170.035 97.66 170.051 97.66C170.066 97.66 170.082 97.66 170.097 97.66C170.113 97.66 170.128 97.66 170.144 97.66C170.159 97.66 170.175 97.66 170.19 97.66C170.206 97.66 170.221 97.66 170.236 97.66C170.252 97.66 170.267 97.66 170.283 97.66C170.298 97.66 170.314 97.66 170.329 97.66C170.345 97.66 170.36 97.66 170.376 97.66C170.391 97.66 170.407 97.66 170.422 97.66C170.438 97.66 170.453 97.66 170.469 97.66C170.484 97.66 170.499 97.66 170.515 97.66C170.53 97.66 170.546 97.66 170.561 97.66C170.577 97.66 170.592 97.66 170.608 97.66C170.623 97.66 170.639 97.66 170.654 97.66C170.67 97.66 170.685 97.66 170.701 97.66C170.716 97.66 170.731 97.66 170.747 97.66C170.762 97.66 170.778 97.66 170.793 97.66C170.809 97.66 170.824 97.66 170.84 97.66C170.855 97.66 170.871 97.66 170.886 97.66C170.902 97.66 170.917 97.66 170.933 97.66C170.948 97.66 170.964 97.66 170.979 97.66C170.994 97.66 171.01 97.66 171.025 97.66C171.041 97.66 171.056 97.66 171.072 97.66C171.087 97.66 171.103 97.66 171.118 97.66C171.134 97.66 171.149 97.66 171.165 97.66C171.18 97.66 171.196 97.66 171.211 97.66C171.226 97.66 171.242 97.66 171.257 97.66C171.273 97.66 171.288 97.66 171.304 97.66C171.319 97.66 171.335 97.66 171.35 97.66C171.366 97.66 171.381 97.66 171.397 97.66C171.412 97.66 171.428 97.66 171.443 97.66C171.459 97.66 171.474 97.66 171.489 97.66C171.505 97.66 171.52 97.66 171.536 97.66C171.551 97.66 171.567 97.66 171.582 97.66C171.598 97.66 171.613 97.66 171.629 97.66C171.644 97.66 171.66 97.66 171.675 97.66C171.691 97.66 171.706 97.66 171.721 97.66C171.737 97.66 171.752 97.66 171.768 97.66C171.783 97.66 171.799 97.66 171.814 97.66C171.83 97.66 171.845 97.66 171.861 97.66C171.876 97.66 171.892 97.66 171.907 97.66C171.923 97.66 171.938 97.66 171.954 97.66C171.969 97.66 171.984 97.66 172 97.66C172.015 97.66 172.031 97.66 172.046 97.66C172.062 97.66 172.077 97.66 172.093 97.66C172.108 97.66 172.124 97.66 172.139 97.66C172.155 97.66 172.17 97.66 172.186 97.66C172.201 97.66 172.216 97.66 172.232 97.66C172.247 97.66 172.263 97.66 172.278 97.66C172.294 97.66 172.309 97.66 172.325 97.66C172.34 97.66 172.356 97.66 172.371 97.66C172.387 97.66 172.402 97.66 172.418 97.66C172.433 97.66 172.449 97.66 172.464 97.66C172.479 97.66 172.495 97.66 172.51 97.66C172.526 97.66 172.541 97.66 172.557 97.66C172.572 97.66 172.588 97.66 172.603 97.66C172.619 97.66 172.634 97.66 172.65 97.66C172.665 97.66 172.681 97.66 172.696 97.66C172.711 97.66 172.727 97.66 172.742 97.66C172.758 97.66 172.773 97.66 172.789 97.66C172.804 97.66 172.82 97.66 172.835 97.66C172.851 97.66 172.866 97.66 172.882 97.66C172.897 97.66 172.913 97.66 172.928 97.66C172.944 97.66 172.959 97.66 172.974 97.66C172.99 97.66 173.005 97.66 173.021 97.66C173.036 97.66 173.052 97.66 173.067 97.66C173.083 97.66 173.098 97.66 173.114 97.66C173.129 97.66 173.145 97.66 173.16 97.66C173.176 97.66 173.191 97.66 173.206 97.66C173.222 97.66 173.237 97.66 173.253 97.66C173.268 97.66 173.284 97.66 173.299 97.66C173.315 97.66 173.33 97.66 173.346 97.66C173.361 97.66 173.377 97.66 173.392 97.66C173.408 97.66 173.423 97.66 173.439 97.66C173.454 97.66 173.469 97.66 173.485 97.66C173.5 97.66 173.516 97.66 173.531 97.66C173.547 97.66 173.562 97.66 173.578 97.66C173.593 97.66 173.609 97.66 173.624 97.66C173.64 97.66 173.655 97.66 173.671 97.66C173.686 97.66 173.701 97.66 173.717 97.66C173.732 97.66 173.748 97.66 173.763 97.66C173.779 97.66 173.794 97.66 173.81 97.66C173.825 97.66 173.841 97.66 173.856 97.66C173.872 97.66 173.887 97.66 173.903 97.66C173.918 97.66 173.934 97.66 173.949 97.66C173.964 97.66 173.98 97.66 173.995 97.66C174.011 97.66 174.026 97.66 174.042 97.66C174.057 97.66 174.073 97.66 174.088 97.66C174.104 97.66 174.119 97.66 174.135 97.66C174.15 97.66 174.166 97.66 174.181 97.66C174.196 97.66 174.212 97.66 174.227 97.66C174.243 97.66 174.258 97.66 174.274 97.66C174.289 97.66 174.305 97.66 174.32 97.66C174.336 97.66 174.351 97.66 174.367 97.66C174.382 97.66 174.398 97.66 174.413 97.66C174.429 97.66 174.444 97.66 174.459 97.66C174.475 97.66 174.49 97.66 174.506 97.66C174.521 97.66 174.537 97.66 174.552 97.66C174.568 97.66 174.583 97.66 174.599 97.66C174.614 97.66 174.63 97.66 174.645 97.66C174.661 97.66 174.676 97.66 174.691 97.66C174.707 97.66 174.722 97.66 174.738 97.66C174.753 97.66 174.769 97.66 174.784 97.66C174.8 97.66 174.815 97.66 174.831 97.66C174.846 97.66 174.862 97.66 174.877 97.66C174.893 97.66 174.908 97.66 174.924 97.66C174.939 97.66 174.954 97.66 174.97 97.66C174.985 97.66 175.001 97.66 175.016 97.66C175.032 97.66 175.047 97.66 175.063 97.66C175.078 97.66 175.094 97.66 175.109 97.66C175.125 97.66 175.14 97.66 175.156 97.66C175.171 97.66 175.186 97.66 175.202 97.66C175.217 97.66 175.233 97.66 175.248 97.66C175.264 97.66 175.279 97.66 175.295 97.66C175.31 97.66 175.326 97.66 175.341 97.66C175.357 97.66 175.372 97.66 175.388 97.66C175.403 97.66 175.419 97.66 175.434 97.66C175.449 97.66 175.465 97.66 175.48 97.66C175.496 97.66 175.511 97.66 175.527 97.66C175.542 97.66 175.558 97.66 175.573 97.66V77.66ZM152.002 77.6618C144.361 77.5176 137.335 77.2299 130.918 76.8021L129.588 96.7578C136.371 97.2101 143.719 97.5091 151.625 97.6582L152.002 77.6618ZM130.918 76.8021C124.504 76.3745 119.454 75.8175 115.672 75.1654L112.274 94.8746C116.999 95.6892 122.803 96.3055 129.588 96.7578L130.918 76.8021ZM123.97 84.7762L123.75 75.7562L103.756 76.2438L103.976 85.2638L123.97 84.7762ZM113.753 66H102.093V86H113.753V66ZM92.0932 76V104.38H112.093V76H92.0932ZM102.093 114.38H113.753V94.38H102.093V114.38ZM123.753 104.38V94.04H103.753V104.38H123.753ZM114.27 104.027C131.117 103.155 147.665 102.72 163.913 102.72V82.72C147.308 82.72 130.416 83.1648 113.237 84.0533L114.27 104.027ZM163.913 102.72C180.311 102.72 197.753 103.155 216.241 104.029L217.185 84.0511C198.42 83.1646 180.662 82.72 163.913 82.72V102.72ZM206.72 93.6753C206.026 112.694 202.229 127.681 195.872 139.124L213.355 148.836C221.664 133.879 225.934 115.573 226.707 94.4047L206.72 93.6753ZM195.853 139.157C189.839 150.08 180.555 158.397 167.432 164.058L175.354 182.422C192.151 175.176 205.014 163.987 213.373 148.803L195.853 139.157ZM167.509 164.025C154.222 169.627 136.177 172.7 112.873 172.7V192.7C137.676 192.7 158.645 189.467 175.278 182.455L167.509 164.025Z" fill="#1D1D1D" mask="url(#path-1-outside-1_159_189)"/>
<defs>
<linearGradient id="paint0_linear_159_189" x1="109" y1="21" x2="112.563" y2="174.919" gradientUnits="userSpaceOnUse">
<stop stop-color="#FABA4C"/>
<stop offset="1" stop-color="#FFED4B"/>
</linearGradient>
</defs>
</svg>
