<svg width="32" height="32" viewBox="0 0 32 32" fill="none" xmlns="http://www.w3.org/2000/svg">
<g clip-path="url(#clip0_156_17)">
<path d="M16 0C7.15852 0 0 7.15852 0 16C0 24.8415 7.15852 32 16 32C24.8415 32 32 24.8415 32 16C32 7.15852 24.8415 0 16 0ZM23.7985 10.1689C23.7037 11.6385 20.9778 22.6133 20.9778 22.6133C20.9778 22.6133 20.8119 23.2533 20.2193 23.277C20.0059 23.277 19.7452 23.2533 19.437 22.9689C18.8207 22.4474 17.3985 21.4281 16.0711 20.5037C15.6681 20.8356 14.8622 21.523 14.0563 22.3526C12.8948 23.5141 13.037 22.3526 13.037 22.3526L13.3926 18.5363C13.4163 18.4889 13.44 18.4652 13.44 18.4652C13.44 18.4652 20.3378 12.3259 20.5274 11.6859C20.5511 11.6385 20.48 11.6148 20.4089 11.6385C19.9585 11.8281 12.0178 16.8296 11.1407 17.3985C11.0933 17.4222 10.9511 17.3985 10.9511 17.3985L7.08741 16.1422C7.08741 16.1422 6.63704 15.9526 6.77926 15.5259C6.80296 15.4311 6.87407 15.36 7.0637 15.2415C7.91704 14.6489 22.8741 9.26815 22.8741 9.26815C22.8741 9.26815 23.3007 9.12593 23.5378 9.22074C23.6563 9.26815 23.7274 9.31556 23.7748 9.48148C23.7985 9.55259 23.7985 9.69481 23.7985 9.81333C23.8222 9.93185 23.7985 10.0267 23.7985 10.1689Z" fill="#F2F2F2" fill-opacity="0.9"/>
</g>
<defs>
<clipPath id="clip0_156_17">
<rect width="32" height="32" fill="white"/>
</clipPath>
</defs>
</svg>
