<svg width="32" height="32" viewBox="0 0 32 32" fill="none" xmlns="http://www.w3.org/2000/svg">
<g clip-path="url(#clip0_156_20)">
<path d="M16 0C7.15852 0 0 7.15852 0 16C0 24.8415 7.15852 32 16 32C24.8415 32 32 24.8415 32 16C32 7.15852 24.8415 0 16 0ZM24.7941 14.1748C24.2015 14.1748 23.6089 14.1037 23.04 13.9615C22.0444 13.7244 21.12 13.3215 20.2667 12.7763C20.2193 12.7526 20.1719 12.6815 20.1244 12.7052C20.0533 12.7289 20.1007 12.8 20.1007 12.8711C20.1007 15.1704 20.1007 17.4696 20.1007 19.7452C20.1007 21.357 19.5793 22.7793 18.5363 24.0119C17.4222 25.3156 16 26.0741 14.2933 26.2637C12.9896 26.4296 11.7333 26.1926 10.5481 25.6C10.3585 25.5052 10.1689 25.3867 10.003 25.2681C9.95556 25.2207 9.88444 25.1733 9.83704 25.1259C9.71852 25.0785 9.6 24.9837 9.50519 24.8889C8.46222 24.0593 7.7037 22.9926 7.30074 21.7126C7.15852 21.2622 7.0637 20.8119 7.0163 20.3378C6.99259 20.0059 6.99259 19.6504 6.99259 19.3185C7.04 18.5363 7.22963 17.8015 7.53778 17.0904C7.86963 16.3556 8.32 15.6919 8.91259 15.123C9.6 14.4593 10.3822 13.9615 11.283 13.6296C11.8519 13.4163 12.4207 13.2978 13.0133 13.2504C13.44 13.2267 13.8667 13.2267 14.2933 13.2741C14.3407 13.2741 14.3881 13.2978 14.3881 13.3689C14.3881 13.6059 14.3881 13.843 14.3881 14.08C14.3881 14.08 14.4119 15.8815 14.4119 16.7111C14.4119 16.7348 14.4119 16.7585 14.4119 16.8059C14.4119 16.9007 14.3644 16.9244 14.2933 16.9007C14.0563 16.8296 13.843 16.8059 13.6059 16.8059C13.2504 16.7822 12.8948 16.8296 12.5393 16.9719C11.4015 17.3985 10.7141 18.2044 10.5719 19.4133C10.4296 20.5985 10.9037 21.5467 11.8756 22.2341C11.9467 22.2815 12.0415 22.3526 12.1126 22.4C12.1363 22.4237 12.16 22.4237 12.16 22.4474C12.397 22.5422 12.6104 22.637 12.8711 22.6844C13.6533 22.8267 14.3644 22.7081 15.0281 22.3052C15.8104 21.8311 16.2607 21.12 16.4267 20.243C16.4504 20.077 16.4504 19.9111 16.4504 19.7215C16.4504 15.123 16.4504 10.5007 16.4504 5.90222C16.4504 5.68889 16.4267 5.71259 16.64 5.71259C17.7067 5.71259 18.7733 5.71259 19.8163 5.71259C19.84 5.71259 19.8637 5.71259 19.8874 5.71259C20.0059 5.71259 20.0059 5.71259 20.0059 5.83111C20.0059 6.06815 20.1007 6.66074 20.1244 6.70815C20.6222 9.00741 23.3244 10.4296 24.1778 10.5481C24.4148 10.5719 24.6519 10.6193 24.8652 10.6193C24.96 10.6193 24.96 10.6193 24.96 10.7141C24.96 10.9274 25.0074 13.1556 25.0074 13.9852C25.0074 14.1511 24.9837 14.1748 24.7941 14.1748Z" fill="#F2F2F2" fill-opacity="0.9"/>
</g>
<defs>
<clipPath id="clip0_156_20">
<rect width="32" height="32" fill="white"/>
</clipPath>
</defs>
</svg>
