<svg width="32" height="32" viewBox="0 0 32 32" fill="none" xmlns="http://www.w3.org/2000/svg">
<g clip-path="url(#clip0_156_23)">
<path fill-rule="evenodd" clip-rule="evenodd" d="M16 0C7.15852 0 0 7.15852 0 16C0 24.8415 7.15852 32 16 32C24.8415 32 32 24.8415 32 16C32 7.15852 24.8415 0 16 0ZM24.8415 12.5867C24.8415 12.7763 24.8652 12.9422 24.8652 13.1319C24.8652 18.7496 20.5985 25.2207 12.7763 25.2207C10.3822 25.2207 8.15407 24.5096 6.25778 23.3007C6.58963 23.3481 6.92148 23.3481 7.27704 23.3481C9.26815 23.3481 11.0933 22.6607 12.563 21.523C10.7141 21.4993 9.12593 20.2667 8.60444 18.5837C8.86518 18.6311 9.12593 18.6548 9.41037 18.6548C9.78963 18.6548 10.1689 18.6074 10.5244 18.5126C8.58074 18.1333 7.11111 16.403 7.11111 14.3407C7.11111 14.317 7.11111 14.2933 7.11111 14.2933C7.68 14.6015 8.3437 14.8148 9.03111 14.8148C7.89333 14.0563 7.13481 12.7526 7.13481 11.283C7.13481 10.5007 7.34815 9.76593 7.7037 9.14963C9.78963 11.7096 12.9185 13.4163 16.4504 13.5822C16.3793 13.2741 16.3319 12.9422 16.3319 12.6104C16.3319 10.2637 18.2281 8.36741 20.5748 8.36741C21.8074 8.36741 22.8978 8.88889 23.68 9.71852C24.6519 9.52889 25.5526 9.17333 26.3822 8.67556C26.0741 9.67111 25.3867 10.5007 24.5096 11.0222C25.363 10.9274 26.1926 10.6904 26.9511 10.3585C26.3822 11.2356 25.6711 11.9704 24.8415 12.5867Z" fill="#F2F2F2" fill-opacity="0.9"/>
</g>
<defs>
<clipPath id="clip0_156_23">
<rect width="32" height="32" fill="white"/>
</clipPath>
</defs>
</svg>
